<?xml version="1.0" encoding="utf-8"?>
<!-- Generator: Adobe Illustrator 27.0.1, SVG Export Plug-In . SVG Version: 6.00 Build 0)  -->
<svg version="1.1" id="Layer_1" xmlns="http://www.w3.org/2000/svg" xmlns:xlink="http://www.w3.org/1999/xlink" x="0px" y="0px"
	 viewBox="0 0 700 650" style="enable-background:new 0 0 700 650;" xml:space="preserve">
<style type="text/css">
	.st0{fill:#FFFFFF;stroke:#000000;stroke-miterlimit:10;}
</style>
<g transform="translate(0.000000,1190.000000) scale(0.100000,-0.100000)">
	<path d="M2429.1,11838.3c-111.2-26.9-212.2-126.3-267-263.3c-92.4-231-55.3-515.3,89.2-683.5c37.6-44.1,68.2-68.2,118.2-93
		c179.5-88.7,379.9,25.3,466.4,266.5c29,81.7,37.6,137,37.6,241.8c0,104.2-8.6,159.6-37.6,241.8
		C2760,11759.9,2594,11878.1,2429.1,11838.3z"/>
	<path d="M4467.6,11841.6c-70.4-10.7-132.2-45.7-190.7-108c-66.1-69.9-113.4-166-137.6-278.9c-15.6-72-17.2-214.4-3.8-282.1
		c35.5-174.6,122-310.6,235.3-370.2c217.1-114.4,448.1,56.4,508.3,375.6c12.4,65,12.4,187.5,0,255.2
		c-36,201-153.1,361.1-293.4,399.2C4546.1,11843.7,4503.1,11846.9,4467.6,11841.6z"/>
	<path d="M1715.5,11583.7c-93-15.6-173.6-103.7-206.9-225.7c-14-51-14-202.6,0.5-255.2c33.3-122.5,103.2-218.7,189.7-261.7
		c33.9-16.7,39.8-17.7,90.3-17.7c50,0,56.4,1.1,89.7,17.7c94.6,46.2,156.9,163.9,163.9,307.3
		C2054.5,11397.2,1892.3,11613.2,1715.5,11583.7z"/>
	<path d="M5190.3,11574c-104.2-36.5-183.2-137.6-218.7-278.3c-9.7-38.7-11.8-62.9-11.8-125.7c0-93,7.5-129.5,43.5-203.1
		c52.7-107.5,144-163.3,239.1-146.2c55.9,10.2,88.1,29,138.6,80.1c38.1,38.1,50.5,55.3,70.9,97.3c36,72.5,47.8,122,51,210.1
		c3.2,80.6-2.1,122-22.6,182.7c-26.9,79.5-79.5,144-141.9,173.6C5294,11585.3,5232.8,11589.6,5190.3,11574z"/>
	<path d="M1076.1,11331.7c-38.1-15.6-60.7-30.6-87-60.2c-99.4-110.7-104.2-326.7-10.2-493.8c32.2-57,97.8-124.7,144.5-149.4
		c18.3-9.1,48.4-21,67.2-25.8c116.6-30.1,226.7,51.6,266,196.7c12.4,46.2,12.9,159,0.5,213.9c-31.2,135.9-116.6,257.4-215.5,304.7
		c-37.6,18.3-48.4,20.4-91.3,22.6C1111.5,11341.9,1096,11340.3,1076.1,11331.7z"/>
	<path d="M5808.8,11336.5c-11.3-3.2-37.1-14-57-24.7c-96.2-50.5-169.8-155.3-204.7-290.7c-17.2-67.2-17.2-169.3,0-230
		c33.3-118.2,106.9-188.6,202-195c168.2-10.7,327.8,183.8,339.6,412.7c7.5,146.7-51.6,272.4-147.2,315.4
		C5906.6,11339.2,5844.3,11345.1,5808.8,11336.5z"/>
	<path d="M579.6,10988.8c-78.4-33.9-126.8-111.2-134.9-217.1c-11.3-144.5,71.5-317,189.1-392.8c88.1-57.5,185.4-54.8,252.5,7
		c30.1,27.9,46.2,54.3,62.9,104.2c10.2,31.7,12.4,48.4,11.8,104.8c-0.5,56.4-2.7,74.7-15,114.4c-38.1,127.3-113.4,222.5-211.2,268.1
		c-31.2,15-43.5,17.7-84.9,18.8C613.5,10997.4,596.3,10995.8,579.6,10988.8z"/>
	<path d="M6294.5,10988.3c-107.5-35.5-198.8-141.9-239.6-278.9c-19.9-65.6-21.5-163.3-3.8-219.8c22.6-70.4,69.3-124.7,125.7-144.5
		c33.3-11.8,95.1-10.2,132.2,3.2c110.2,40.8,198.3,150.4,235.9,292.8c13.4,51,13.4,153.7,0,198.3c-13.4,45.1-27.4,70.4-55.3,99.9
		C6440.7,10991.5,6363.3,11010.9,6294.5,10988.3z"/>
	<path d="M2057.2,10734.7c-351.4-31.7-774.3-183.2-1082.2-388.5c-255.2-170.3-407.3-342.8-485.2-551.8
		c-57.5-154.7-66.1-298.7-27.4-455.6c33.3-134.3,90.3-242.9,235.3-443.8c67.7-94,71.5-101.6,121.4-226.7
		c90.8-226.7,165.5-451.3,262.7-792c67.2-235.9,87.6-333.1,159.6-765.7c98.9-594.3,141.9-797.4,201-946.2
		c130-326.7,478.8-631.4,800.6-698.5c62.3-12.9,156.4-11.8,237,2.7c206.9,36.5,356.2,129,464.8,288.5
		c109.6,159.6,154.2,338,154.2,612c0,264.4-26.9,373.4-202,822.1c-138.1,353.6-149.4,394.4-172.5,620.6
		c-16.1,154.2-21,252.5-21,419.1c-0.5,171.9,4.3,253.6,23.6,403c14,110.2,24.7,160.1,69.3,317c68.8,241.3,86.5,342.8,112.8,639.4
		c9.7,107.5,16.7,317,13.4,394.9c-8.1,189.1-30.6,310.6-75.2,404.1c-55.9,118.7-131.6,187.5-291.2,264.9
		c-79,38.7-141.3,60.2-211.2,72C2285.6,10736.8,2128.7,10741.1,2057.2,10734.7z"/>
	<path d="M4740.1,10734.2c-113.9-8.1-185.9-28.5-302-85.4c-90.8-44.6-132.7-72-181.6-117.7c-91.3-86-139.7-191.8-162.8-353.6
		c-24.2-174.1-19.3-449.7,14-756.5c17.2-156.4,40.8-273,90.8-450.3c46.7-163.9,62.9-235.9,75.8-338.5
		c36.5-292.3,33.3-595.4-10.7-930.6c-17.7-135.4-41.4-210.6-169.8-538.4c-83.3-213.3-140.8-381.5-160.1-469.6
		c-47.8-215.5-43.5-498.1,10.2-697.4c53.7-198.8,182.7-367.5,346.6-454c109.6-58,275.6-94.6,392.2-87
		c151,9.7,335.3,90.8,498.1,219.2c57,45.1,160.7,147.2,207.9,205.8c73.1,89.2,138.6,199.9,173,290.2
		c55.9,148.3,102.1,363.2,187.5,878.5c91.9,554,105.3,614.7,226.2,1018.2c77.4,257.9,159.6,492.7,235.9,673.8
		c19.3,45.7,37.6,77.4,73.1,126.3c165,226.2,231.6,353.6,263.8,504.5c16.7,79,16.7,214.9,0,292.3
		c-25.8,119.3-78.4,240.7-145.1,334.8c-51.6,73.6-189.7,210.1-280.5,277.8c-342.8,255.2-812.4,432-1218.6,458.3
		c-43.5,2.7-84.9,4.8-92.4,4.3C4804,10739,4771.8,10736.8,4740.1,10734.2z"/>
	<path d="M166.9,10546.6c-145.6-58.6-137-298.2,16.7-447c62.9-60.7,125.2-88.1,194.5-83.8c48.9,3.2,75.2,15,106.4,48.4
		c31.7,34.9,46.2,76.3,46.7,135.9c0.5,57-7.5,93-32.2,146.7c-38.7,84.9-97.3,147.2-173,184.8c-39.2,19.9-49.4,22.6-88.7,24.2
		C202.9,10557.4,187.4,10555.2,166.9,10546.6z"/>
	<path d="M6731.4,10552c-180-38.1-316.5-292.3-241.8-450.8c36-77.4,127.9-109.1,216-75.8c102.1,39.2,178.4,124.7,218.7,245
		c17.2,51.6,17.2,136.5,0,180C6893.1,10529.4,6816.3,10570.3,6731.4,10552z"/>
</g>
<circle class="st0" cx="139.5" cy="415.4" r="20.7"/>
<circle class="st0" cx="190.5" cy="400.9" r="20.7"/>
<circle class="st0" cx="240.8" cy="388.5" r="20.7"/>
<circle class="st0" cx="459.3" cy="388.5" r="20.7"/>
<circle class="st0" cx="509.6" cy="400.9" r="20.7"/>
<circle class="st0" cx="560.6" cy="415.4" r="20.7"/>
</svg>
